<?xml version="1.0" standalone="no"?>
<!DOCTYPE svg PUBLIC "-//W3C//DTD SVG 20010904//EN"
 "http://www.w3.org/TR/2001/REC-SVG-20010904/DTD/svg10.dtd">
<svg version="1.0" xmlns="http://www.w3.org/2000/svg"
 width="779.000000pt" height="779.000000pt" viewBox="0 0 779.000000 779.000000"
 preserveAspectRatio="xMidYMid meet">
<metadata>
Created by potrace 1.11, written by Peter Selinger 2001-2013
</metadata>
<g transform="translate(0.000000,779.000000) scale(0.100000,-0.100000)"
fill="#000000" stroke="none">
<path d="M5600 6159 c-30 -5 -75 -11 -100 -14 -89 -11 -257 -53 -345 -87 -179
-67 -354 -196 -400 -293 -26 -56 -31 -134 -11 -173 52 -100 194 -155 386 -147
138 5 237 27 335 74 90 44 121 72 140 127 23 68 -6 122 -85 156 -54 24 -188
28 -268 9 -29 -7 -55 -11 -58 -9 -10 10 79 59 133 73 193 50 413 -23 478 -161
26 -55 24 -147 -5 -203 -84 -165 -402 -343 -797 -445 -32 -9 -92 -29 -133 -46
-63 -26 -75 -28 -89 -17 -47 41 -175 85 -306 106 -62 10 -261 8 -305 -3 -14
-3 -38 -9 -55 -12 -78 -17 -203 -101 -206 -138 0 -6 -2 -19 -4 -30 -9 -45 36
-108 95 -133 68 -29 217 -17 348 28 69 24 75 24 62 0 -11 -22 -101 -69 -146
-77 -16 -3 -47 -9 -69 -14 -37 -8 -88 -14 -220 -25 -27 -3 -156 -7 -285 -10
-260 -5 -460 -14 -469 -19 -3 -2 -38 -7 -76 -10 -39 -4 -80 -8 -90 -10 -11 -2
-42 -7 -70 -10 -116 -16 -242 -44 -359 -82 -266 -85 -451 -248 -449 -394 2
-126 108 -203 281 -202 83 1 101 3 178 28 180 56 265 257 136 321 -55 27 -181
24 -247 -5 -27 -13 -57 -30 -67 -39 -30 -27 -20 4 12 41 44 49 107 71 205 70
60 0 90 -6 120 -21 126 -66 141 -197 34 -301 -18 -18 -36 -32 -40 -32 -4 0 -9
-6 -12 -14 -4 -9 15 -22 61 -40 80 -31 203 -109 268 -168 208 -192 273 -497
175 -826 -15 -49 -67 -140 -112 -193 -29 -35 -35 -49 -26 -57 17 -14 181 -15
279 -2 318 43 507 113 643 240 37 34 49 39 140 54 192 32 340 100 467 216 37
34 83 82 102 108 33 46 37 48 143 76 194 52 307 108 411 202 57 52 127 156
153 227 16 46 15 45 114 87 245 104 413 272 469 470 8 30 16 66 18 80 2 18 22
37 74 72 134 89 218 200 259 343 22 75 23 198 2 245 l-15 35 49 49 c62 62 114
166 136 273 14 68 15 94 6 157 -36 252 -236 423 -565 482 -101 18 -340 25
-428 13z m434 -194 c132 -35 248 -124 303 -233 25 -50 28 -68 28 -147 0 -79
-4 -97 -29 -147 -29 -58 -82 -119 -149 -174 l-38 -31 29 -44 c66 -98 77 -200
33 -292 -32 -66 -131 -161 -248 -237 l-99 -65 -1 -58 c-2 -78 -10 -112 -43
-177 -63 -125 -234 -246 -412 -290 -45 -12 -46 -13 -56 -65 -21 -103 -83 -195
-182 -267 -92 -67 -275 -139 -452 -179 l-96 -21 -20 -47 c-66 -156 -243 -261
-583 -346 -127 -31 -149 -40 -149 -60 0 -25 -77 -102 -125 -124 -59 -28 -63
-26 -24 6 35 29 70 98 62 120 -3 8 -23 13 -57 13 -30 0 -61 6 -72 14 -19 15
-19 15 1 14 46 -2 174 18 295 46 211 50 442 159 532 253 36 37 62 86 52 96 -3
3 -44 3 -92 0 -65 -4 -84 -2 -76 6 6 7 109 36 230 67 120 30 253 67 294 81
215 74 340 183 366 318 5 30 3 35 -12 36 -38 3 -101 1 -199 -6 -55 -4 -115 -8
-133 -9 -18 -1 -35 1 -37 4 -4 7 79 22 245 45 186 25 284 51 389 102 172 84
268 198 279 330 l5 62 -29 -5 c-59 -10 -464 -114 -614 -158 -85 -25 -156 -43
-158 -41 -16 16 200 112 348 154 41 12 86 26 100 30 14 5 50 16 80 24 148 42
298 91 334 110 179 91 308 242 308 361 0 79 -64 184 -96 157 -51 -42 -242
-111 -516 -186 -239 -65 -373 -107 -439 -136 -55 -25 -62 -26 -46 -9 41 45
211 111 630 245 346 110 499 205 572 353 24 48 28 69 28 137 -1 135 -61 224
-196 292 -68 35 -195 73 -241 73 -16 0 -28 4 -28 9 0 15 143 12 204 -4z
m-1407 -1127 c35 -39 45 -68 41 -124 -3 -53 -2 -54 31 -72 78 -39 98 -129 48
-214 -25 -42 -98 -118 -145 -148 -22 -15 -23 -16 -9 -70 33 -125 -28 -225
-186 -304 -73 -36 -74 -38 -81 -82 -12 -92 -65 -163 -154 -208 -38 -19 -52
-32 -57 -55 -9 -42 -67 -94 -157 -141 -66 -35 -207 -90 -227 -90 -3 0 30 21
74 46 102 58 159 102 180 138 15 24 15 30 4 37 -8 5 -21 9 -29 9 -8 1 14 14
49 31 149 68 249 162 246 229 0 17 -20 18 -130 5 -88 -9 -77 3 32 38 210 67
350 173 366 276 6 37 -9 81 -29 81 -6 0 -52 -15 -100 -34 -92 -35 -161 -50
-169 -36 -3 5 12 14 32 20 21 7 77 32 126 56 256 127 344 249 269 373 l-18 30
-43 -30 c-42 -28 -193 -82 -263 -94 -18 -3 -51 -10 -73 -15 -22 -5 -60 -12
-85 -15 -25 -3 -54 -8 -65 -10 -11 -2 -36 -4 -55 -4 -34 -1 -35 -3 -36 -39 -1
-46 -39 -106 -94 -146 -35 -26 -38 -32 -26 -45 33 -39 24 -118 -19 -170 -22
-25 -24 -32 -14 -61 9 -24 9 -46 0 -86 -10 -44 -21 -61 -60 -96 -37 -33 -46
-48 -41 -63 11 -32 -10 -93 -42 -120 -41 -34 -52 -31 -28 8 37 60 16 135 -33
119 -12 -4 -29 -7 -37 -6 -8 1 -26 2 -40 3 -17 1 0 12 55 34 103 41 139 67
151 109 14 46 -1 102 -24 93 -9 -4 -39 -9 -67 -11 -46 -4 -48 -3 -24 9 47 22
124 78 144 105 22 30 27 99 7 111 -6 4 -35 5 -64 1 -63 -6 -123 1 -95 13 10 4
25 7 33 7 25 0 135 59 180 95 48 39 73 89 57 114 -11 17 -11 17 -92 19 -84 3
-61 13 59 27 30 3 71 8 90 10 19 2 60 7 90 10 311 32 509 114 536 221 6 23 -4
75 -21 117 -10 24 8 21 32 -5z"/>
<path d="M361 3648 c-5 -13 -32 -72 -60 -132 -28 -59 -51 -110 -51 -111 0 -2
-25 -55 -55 -120 -30 -64 -55 -118 -55 -120 0 -3 -19 -44 -41 -92 -23 -49 -52
-111 -64 -140 l-23 -52 86 -3 c158 -6 135 -25 237 200 49 108 94 212 101 231
l11 33 6 -48 c3 -27 25 -130 49 -229 l45 -180 119 -3 119 -2 144 317 c80 175
160 349 178 387 18 38 33 73 33 77 0 4 -51 8 -114 8 l-114 1 -22 -48 c-21 -44
-93 -200 -154 -335 -14 -32 -27 -63 -27 -70 -1 -7 -5 11 -10 38 -4 28 -28 131
-52 230 l-44 180 -117 3 c-113 3 -116 2 -125 -20z"/>
<path d="M1233 3575 c-25 -52 -43 -98 -40 -102 4 -3 59 -6 122 -6 63 0 115 -3
115 -8 0 -4 -16 -43 -35 -86 -20 -43 -78 -170 -129 -283 l-93 -205 106 -5 c58
-3 115 -3 126 -2 15 3 44 56 124 235 58 128 117 260 133 294 l28 61 112 -1
113 -2 47 95 c26 52 47 98 48 103 0 4 -164 7 -365 7 l-366 0 -46 -95z"/>
<path d="M2107 3618 c-44 -94 -133 -289 -206 -450 -39 -87 -84 -185 -101 -219
-16 -35 -30 -64 -30 -66 0 -2 57 -2 126 -1 l126 3 52 117 c29 65 55 121 59
124 3 3 59 7 125 9 159 4 247 23 324 72 51 31 112 111 137 177 51 136 31 216
-62 257 -49 22 -67 24 -288 27 l-237 4 -25 -54z m348 -159 c22 -22 2 -83 -37
-110 -25 -18 -49 -24 -115 -27 -46 -3 -83 -1 -83 3 0 4 15 40 34 80 22 46 41
75 53 77 36 7 133 -8 148 -23z"/>
<path d="M639 2768 c-17 -19 -20 -31 -16 -73 7 -62 31 -111 100 -200 103 -134
230 -220 423 -284 49 -16 100 -32 114 -35 90 -20 244 -47 290 -51 30 -3 71 -8
90 -11 19 -2 107 -7 195 -9 88 -3 206 -7 262 -10 l102 -5 56 54 c78 74 164
122 254 142 87 20 251 22 326 5 53 -13 295 -86 333 -101 12 -5 22 -6 21 -2 -1
18 -77 147 -90 153 -8 4 -59 21 -114 39 -55 17 -145 53 -201 80 -96 45 -103
47 -138 35 -20 -7 -36 -11 -36 -9 0 2 -11 -1 -25 -6 -14 -5 -36 -12 -48 -14
-12 -3 -55 -12 -94 -20 -40 -9 -87 -18 -105 -21 -18 -3 -69 -12 -113 -20 -44
-8 -100 -17 -125 -20 -25 -3 -56 -8 -70 -10 -397 -68 -807 -3 -1029 163 -30
23 -99 84 -154 137 -125 121 -164 138 -208 93z"/>
<path d="M7705 2780 c-46 -10 -125 -53 -310 -170 -276 -173 -405 -242 -678
-364 -198 -89 -493 -188 -592 -200 -11 -2 -29 -6 -40 -9 -19 -6 -43 -10 -120
-23 -16 -2 -52 -9 -80 -14 -27 -5 -70 -12 -95 -15 -40 -5 -64 -8 -150 -20
-160 -23 -565 -23 -730 0 -19 2 -59 7 -90 10 -52 5 -145 19 -200 30 -91 18
-127 27 -139 35 -10 5 -27 3 -49 -6 -68 -28 -153 -45 -229 -45 -79 0 -91 2
-176 22 -41 9 -51 9 -65 -5 -24 -21 -99 -53 -142 -61 -67 -12 -160 -21 -321
-30 -136 -8 -149 -19 -68 -61 107 -54 428 -138 644 -169 23 -3 51 -7 64 -10
13 -2 49 -7 80 -10 31 -4 65 -8 76 -10 214 -33 887 -33 1145 0 19 3 58 7 85
11 69 8 84 10 135 18 25 4 57 9 73 12 103 16 282 50 325 63 18 5 33 10 35 10
12 -1 231 59 262 71 11 5 45 16 75 26 226 70 583 231 798 361 331 200 553 402
552 505 0 43 -25 59 -75 48z"/>
<path d="M3688 2725 c-3 -4 -57 -20 -120 -36 -158 -41 -242 -50 -356 -38 -82
9 -145 20 -154 25 -4 2 -34 -13 -68 -35 -33 -22 -95 -54 -138 -71 -42 -18 -78
-33 -80 -35 -6 -5 146 -73 257 -114 l123 -46 23 -61 c43 -115 91 -172 196
-232 136 -77 295 -105 422 -73 109 28 109 37 -3 99 -41 23 -97 62 -125 86 -39
35 -65 48 -115 61 -106 26 -114 40 -38 64 57 19 104 0 225 -90 183 -136 280
-171 458 -168 184 3 298 59 358 173 31 60 30 157 -3 216 -75 137 -272 249
-412 232 -51 -5 -88 -18 -88 -30 0 -5 27 -32 59 -61 106 -93 122 -142 58 -182
-68 -41 -175 -18 -320 70 -122 73 -127 75 -204 51 -37 -11 -68 -19 -70 -16 -3
3 96 65 122 75 18 7 25 25 25 67 0 39 -19 81 -32 69z"/>
<path d="M2637 2264 c-1 -1 -22 -4 -47 -7 -141 -17 -245 -83 -260 -166 -26
-141 172 -241 405 -207 146 22 208 115 130 193 -39 39 -41 42 -22 39 21 -3 43
-19 105 -77 86 -80 154 -112 257 -117 90 -5 161 7 236 39 40 17 47 24 38 35
-6 8 -15 14 -20 14 -5 0 -62 25 -127 56 -150 72 -387 159 -488 178 -67 13
-200 26 -207 20z"/>
</g>
</svg>
